<svg width="71" height="71" viewBox="0 0 71 71" fill="none" xmlns="http://www.w3.org/2000/svg">
<path d="M35.5 0C15.8981 0 0 15.8951 0 35.5C0 51.1851 10.1707 64.4917 24.279 69.1865C26.0511 69.5149 26.625 68.4144 26.625 67.4796V60.8707C16.7501 63.0184 14.694 56.6817 14.694 56.6817C13.0788 52.5785 10.7506 51.4868 10.7506 51.4868C7.52896 49.2829 10.9961 49.3302 10.9961 49.3302C14.5609 49.5787 16.4365 52.9897 16.4365 52.9897C19.6019 58.4152 24.7405 56.8473 26.767 55.9391C27.0835 53.6464 28.0036 52.0785 29.0212 51.194C21.1373 50.2917 12.848 47.2475 12.848 33.6481C12.848 29.7697 14.2355 26.6043 16.5045 24.1193C16.1377 23.2229 14.9218 19.6108 16.8507 14.7236C16.8507 14.7236 19.8327 13.771 26.6161 18.3624C29.4472 17.5755 32.4825 17.182 35.5 17.1672C38.5175 17.182 41.5557 17.5755 44.3927 18.3624C51.1703 13.771 54.1464 14.7236 54.1464 14.7236C56.0782 19.6138 54.8623 23.2259 54.4955 24.1193C56.7734 26.6043 58.149 29.7727 58.149 33.6481C58.149 47.283 49.845 50.2857 41.9403 51.1644C43.2124 52.2649 44.375 54.4245 44.375 57.7378V67.4796C44.375 68.4233 44.943 69.5327 46.7446 69.1836C60.8411 64.4828 71 51.1792 71 35.5C71 15.8951 55.1049 0 35.5 0Z" fill="#F5F5F5"/>
</svg>
