<svg width="71" height="71" viewBox="0 0 71 71" fill="none" xmlns="http://www.w3.org/2000/svg">
<rect width="71" height="71" rx="4" fill="#F5F5F5"/>
<path d="M56.8 9.46655H14.2C11.5848 9.46655 9.46667 11.5847 9.46667 14.1999V56.7999C9.46667 59.4151 11.5848 61.5332 14.2 61.5332H56.8C59.4152 61.5332 61.5333 59.4151 61.5333 56.7999V14.1999C61.5333 11.5847 59.4152 9.46655 56.8 9.46655ZM25.9245 52.0666H18.9428V29.6022H25.9245V52.0666ZM22.3626 26.3906C20.1119 26.3906 18.292 24.5659 18.292 22.3199C18.292 20.074 20.1143 18.2516 22.3626 18.2516C24.6062 18.2516 26.4309 20.0763 26.4309 22.3199C26.4309 24.5659 24.6062 26.3906 22.3626 26.3906ZM52.0761 52.0666H45.0992V41.142C45.0992 38.5363 45.0519 35.1851 41.4711 35.1851C37.8383 35.1851 37.2797 38.0228 37.2797 40.9527V52.0666H30.3028V29.6022H37.0005V32.6717H37.0951C38.0276 30.9062 40.3043 29.0436 43.7005 29.0436C50.7697 29.0436 52.0761 33.6965 52.0761 39.7457V52.0666Z" fill="#403C3F"/>
</svg>
